<svg xmlns="http://www.w3.org/2000/svg" fill="none" viewBox="0 0 21 21">
    <path d="M13.818 4.324a6.074 6.074 0 00-2.364-1.152 6.184 6.184 0 00-2.646-.055 6.06 6.06 0 00-3.072 1.605 5.763 5.763 0 00-1.631 2.991 5.695 5.695 0 00.088 2.558 5.806 5.806 0 001.202 2.278c.528.578.83 1.316.855 2.088v2.181c0 .579.237 1.134.66 1.543.421.41.994.639 1.59.639h3c.597 0 1.17-.23 1.592-.639.422-.41.659-.964.659-1.543v-2.043c.025-.852.348-1.67.915-2.32a5.696 5.696 0 001.304-4.242 5.768 5.768 0 00-2.152-3.903v.014zm-1.567 12.494a.716.716 0 01-.22.514.762.762 0 01-.53.213h-3a.762.762 0 01-.531-.213.716.716 0 01-.22-.514v-.727h4.5v.727zm1.252-5.265a5.098 5.098 0 00-1.252 3.084h-1.5v-2.182a.717.717 0 00-.22-.514.762.762 0 00-.53-.213.762.762 0 00-.53.213.716.716 0 00-.22.514v2.182h-1.5a4.646 4.646 0 00-1.2-3.026 4.306 4.306 0 01-.973-2.015 4.237 4.237 0 01.178-2.217 4.36 4.36 0 011.283-1.845 4.556 4.556 0 012.054-.991 4.638 4.638 0 011.98.036 4.557 4.557 0 011.772.856c.518.41.935.926 1.221 1.51.287.586.435 1.226.435 1.874a4.203 4.203 0 01-.998 2.734z" />
</svg>
