<svg xmlns="http://www.w3.org/2000/svg" fill="none" viewBox="0 0 21 21">
    <path d="M7.2 14.6a.8.8 0 100 1.6.8.8 0 000-1.6zM10.4 3C7.2 3 4 4.096 4 6.2v9.6c0 2.104 3.2 3.2 6.4 3.2s6.4-1.096 6.4-3.2V6.2c0-2.104-3.2-3.2-6.4-3.2zm4.8 12.8c0 .568-1.824 1.6-4.8 1.6s-4.8-1.032-4.8-1.6v-2.616a10.527 10.527 0 004.8 1.016 10.527 10.527 0 004.8-1.016V15.8zm0-4.8c0 .568-1.824 1.6-4.8 1.6S5.6 11.568 5.6 11V8.384A10.528 10.528 0 0010.4 9.4a10.528 10.528 0 004.8-1.016V11zm-4.8-3.2c-2.976 0-4.8-1.032-4.8-1.6 0-.568 1.824-1.6 4.8-1.6s4.8 1.032 4.8 1.6c0 .568-1.824 1.6-4.8 1.6zm-3.2 2a.8.8 0 100 1.6.8.8 0 000-1.6z" />
</svg>
