<svg xmlns="http://www.w3.org/2000/svg" fill="none" viewBox="0 0 21 21">
    <path d="M3.6 12.968a.8.8 0 10-1.6 0v.8a.8.8 0 00.8.8h.8a.8.8 0 000-1.6zM6.944 4.6h1.68a.8.8 0 000-1.6h-1.68a.8.8 0 000 1.6zm5.024 0a.8.8 0 001.6 0v-.8a.8.8 0 00-.8-.8h-.8a.8.8 0 100 1.6zM3.6 3h-.8a.8.8 0 00-.8.8v.8a.8.8 0 001.6 0 .8.8 0 000-1.6zm-.8 7.424a.8.8 0 00.8-.8v-1.68a.8.8 0 00-1.6 0v1.68a.8.8 0 00.8.8zM13.056 17.4h-1.68a.8.8 0 100 1.6h1.68a.8.8 0 100-1.6zM17.2 7.432h-.8a.8.8 0 100 1.6.8.8 0 001.6 0v-.8a.8.8 0 00-.8-.8zm0 4.144a.8.8 0 00-.8.8v1.68a.8.8 0 101.6 0v-1.68a.8.8 0 00-.8-.8zm-3.632-4.144a.8.8 0 00-1.6 0H7.232a.8.8 0 00-.8.8v4.736a.8.8 0 000 1.6.8.8 0 101.6 0h4.736a.8.8 0 00.8-.8V9.032a.8.8 0 100-1.6zm-1.6 5.536H8.032V9.032h3.936v3.936zM17.2 16.6a.8.8 0 00-.8.8.8.8 0 100 1.6h.8a.8.8 0 00.8-.8v-.8a.8.8 0 00-.8-.8zm-9.168.8a.8.8 0 10-1.6 0v.8a.8.8 0 00.8.8h.8a.8.8 0 000-1.6z" />
</svg>
