<svg xmlns="http://www.w3.org/2000/svg" fill="none" viewBox="0 0 20 20">
    <path fill-rule="evenodd" d="M16.4 14.868c-.275 0-.531.074-.757.196l-3.477-3.508c.22-.311.378-.668.45-1.058h1.209a1.584 1.584 0 001.508 1.064c.885 0 1.6-.7 1.6-1.564 0-.864-.715-1.563-1.6-1.563a1.584 1.584 0 00-.94.302c-.273.198-.477.479-.581.801h-1.194a2.653 2.653 0 00-.407-1.023l3.51-3.541c.206.095.435.153.679.153.884 0 1.6-.699 1.6-1.563C18 2.699 17.284 2 16.4 2c-.883 0-1.598.7-1.598 1.564 0 .28.08.54.212.766l-3.473 3.506a2.64 2.64 0 00-1.063-.449V6.12c.648-.2 1.122-.784 1.122-1.484 0-.864-.716-1.564-1.6-1.564-.884 0-1.599.7-1.599 1.564 0 .703.475 1.29 1.13 1.488v1.262c-.39.069-.748.22-1.058.437L4.995 4.315c.126-.224.204-.477.204-.75C5.2 2.7 4.483 2 3.6 2c-.883 0-1.598.7-1.598 1.564 0 .864.715 1.563 1.598 1.563.25 0 .485-.06.696-.16l3.504 3.535c-.21.306-.352.658-.42 1.037H6.188a1.598 1.598 0 00-.582-.801 1.584 1.584 0 00-.94-.302c-.884 0-1.598.7-1.598 1.564 0 .864.714 1.563 1.598 1.563.704 0 1.296-.446 1.508-1.064h1.209c.072.396.235.758.463 1.073l-3.472 3.502a1.613 1.613 0 00-.775-.202c-.883 0-1.598.699-1.598 1.563C2 17.301 2.715 18 3.598 18c.884 0 1.6-.7 1.6-1.564 0-.242-.06-.468-.16-.671l3.494-3.527c.295.197.633.331.997.395v1.243c-.653.198-1.129.784-1.129 1.488 0 .864.715 1.563 1.598 1.563.885 0 1.6-.699 1.6-1.563 0-.7-.472-1.285-1.12-1.484v-1.248a2.628 2.628 0 001.004-.404l3.487 3.519c-.11.213-.167.45-.168.69 0 .864.715 1.563 1.598 1.563.884 0 1.6-.7 1.6-1.564 0-.864-.715-1.568-1.6-1.568z" clip-rule="evenodd"/>
</svg>
