<svg xmlns="http://www.w3.org/2000/svg" fill="none" viewBox="0 0 21 21">
    <path fill-rule="evenodd"
          d="M8.446 3.143c.21-.05.422.078.474.288l.425 1.695a.394.394 0 01-.231.46l-.415.172h-.001l-.472.195a1.074 1.074 0 00-.23.108 6.89 6.89 0 00-.135.081 6.839 6.839 0 01-.147.088c-.079.052-.172.103-.248.145a6.19 6.19 0 00-.078.044 1.09 1.09 0 00-.238.17c-.086.08-.184.156-.266.22l-.065.05a1.606 1.606 0 00-.235.216c-.074.096-.163.19-.235.265l-.06.064a1.136 1.136 0 00-.209.286c-.16.243-.288.439-.37.658a.343.343 0 01-.003.008 4.331 4.331 0 11-4.223 5.375.394.394 0 01-.059-.156l-.022-.147v-.001a7.099 7.099 0 01-.058-.495 11.303 11.303 0 01-.025-1.581v-.004c.037-.648.133-1.409.349-2.212l.001-.005a10.084 10.084 0 01.433-1.23l.058-.123c.16-.339.336-.714.582-1.06.24-.402.54-.748.826-1.058.155-.195.332-.352.496-.488.07-.058.134-.11.194-.157.094-.075.179-.143.267-.22a3.9 3.9 0 01.541-.372c.066-.04.127-.074.184-.107.098-.056.186-.106.276-.163.181-.12.363-.202.525-.267l.19-.074a4.4 4.4 0 00.257-.103c.052-.02.107-.043.165-.067.206-.084.444-.181.664-.224a64.062 64.062 0 01.592-.147h.004l.522-.127zM2.184 13.325c.018.033.03.068.039.104a3.544 3.544 0 103.465-4.285c-.151 0-.298.021-.477.047l-.036.005a.394.394 0 01-.434-.501l.002-.008c.057-.188.125-.42.238-.637.114-.295.28-.55.423-.765l.007-.011c.089-.167.203-.3.3-.404l.09-.096c.064-.069.115-.122.164-.186a2.336 2.336 0 01.365-.346l.09-.07c.074-.058.134-.104.191-.157.129-.126.27-.213.386-.28l.124-.069c.064-.036.115-.063.168-.099a5.759 5.759 0 00.161-.097l.014-.008.135-.081a1.87 1.87 0 01.34-.162l.458-.188.101-.043L8.251 4l-.141.035-.239.059c-.109.026-.226.055-.362.09a.39.39 0 01-.025.005c-.136.025-.273.08-.462.158l-.23.091a6.777 6.777 0 01-.301.121l-.145.057a2.09 2.09 0 00-.393.2 8.727 8.727 0 01-.334.196c-.054.031-.106.06-.153.089-.154.09-.295.18-.422.286-.1.087-.214.18-.32.264l-.158.127a2.565 2.565 0 00-.408.404c-.286.31-.547.613-.746.95a.393.393 0 01-.02.03c-.206.287-.354.601-.52.953l-.054.115a9.305 9.305 0 00-.39 1.112 10.17 10.17 0 00-.322 2.048 10.509 10.509 0 00.024 1.48 6.299 6.299 0 00.052.443l.002.012zM18.071 3.143c.21-.05.422.078.474.288l.425 1.695a.394.394 0 01-.231.46l-.415.172h-.001l-.472.195a1.077 1.077 0 00-.23.108 7.083 7.083 0 00-.122.073l-.013.008a6.948 6.948 0 01-.147.088c-.079.052-.172.103-.248.145a5.67 5.67 0 00-.078.044 1.087 1.087 0 00-.238.17c-.085.08-.184.156-.266.22l-.065.05a1.6 1.6 0 00-.235.216c-.075.096-.163.19-.235.265a6.591 6.591 0 00-.06.064 1.136 1.136 0 00-.209.286c-.16.243-.288.439-.37.658a2.126 2.126 0 01-.003.008 4.331 4.331 0 11-4.223 5.375.394.394 0 01-.059-.156l-.022-.147v-.001a7.14 7.14 0 01-.058-.495 11.304 11.304 0 01-.025-1.581v-.004c.037-.648.133-1.409.349-2.212l.002-.005a10.069 10.069 0 01.432-1.23l.058-.123c.16-.339.336-.714.582-1.06.24-.402.54-.748.826-1.058.156-.194.332-.352.496-.487.07-.058.133-.109.193-.156a6.344 6.344 0 00.277-.23c.178-.148.362-.264.532-.364l.184-.106a6.96 6.96 0 00.276-.163 2.85 2.85 0 01.526-.267c.07-.029.13-.052.186-.073.086-.033.16-.061.24-.097a10.417 10.417 0 00.185-.075c.206-.084.444-.181.664-.224l.365-.09.227-.057h.003l.523-.127zm-6.262 10.182c.018.033.03.068.039.104a3.544 3.544 0 103.464-4.285c-.15 0-.297.021-.476.047l-.036.005a.394.394 0 01-.434-.501l.002-.008c.056-.188.125-.42.238-.637.114-.295.28-.55.423-.765l.007-.011c.089-.167.203-.3.3-.404l.09-.096a2.397 2.397 0 00.173-.197c.115-.139.246-.248.356-.335l.09-.07a2.99 2.99 0 00.191-.157c.129-.126.27-.213.386-.28l.124-.069c.064-.036.115-.063.168-.099a5.88 5.88 0 00.161-.097l.014-.008.135-.081c.097-.057.212-.118.34-.162l.458-.188.101-.043L17.876 4l-.141.034-.239.06a53.789 53.789 0 00-.387.095c-.137.025-.273.08-.462.158l-.229.091a6.415 6.415 0 01-.306.124c-.051.02-.099.037-.14.054a2.066 2.066 0 00-.394.2c-.106.067-.224.134-.334.197l-.153.088c-.154.091-.295.18-.422.287-.1.088-.215.18-.32.264l-.158.127a2.58 2.58 0 00-.408.403c-.286.31-.547.613-.746.95a.383.383 0 01-.02.03c-.206.287-.354.601-.52.953l-.054.115a9.314 9.314 0 00-.39 1.112 10.167 10.167 0 00-.322 2.048 10.51 10.51 0 00.024 1.47v.01c.012.163.035.324.052.443l.002.012z"
          clip-rule="evenodd" />
</svg>
