<svg xmlns="http://www.w3.org/2000/svg" fill="none" viewBox="0 0 21 21">
    <path d="M15.939 8.28a.791.791 0 00-.263-.34.724.724 0 00-.393-.14h-3.448l.956-3.792a.848.848 0 00-.128-.696.764.764 0 00-.263-.229.717.717 0 00-.332-.083h-5.27a.723.723 0 00-.474.157.803.803 0 00-.28.435l-2.017 7.999a.848.848 0 00.128.696c.07.098.162.177.266.23.105.055.22.083.336.082H7.67l-1.363 5.39a.846.846 0 00.034.525.784.784 0 00.333.389.715.715 0 00.488.085c.167-.03.32-.12.433-.255l8.207-9.598a.846.846 0 00.136-.856zm-7.372 6.942l.806-3.2a.848.848 0 00-.128-.695.764.764 0 00-.264-.23.717.717 0 00-.331-.082H5.758L7.37 4.6h3.712l-.956 3.791a.849.849 0 00.137.706.762.762 0 00.274.229.715.715 0 00.342.073h2.688l-5 5.823z" />
</svg>
