<svg xmlns="http://www.w3.org/2000/svg" fill="none" viewBox="0 0 21 21">
    <path d="M8.545 5.91a.727.727 0 100 1.454.727.727 0 000-1.455zm-2.909 0a.727.727 0 100 1.454.727.727 0 000-1.455zm5.818 0a.727.727 0 100 1.453.727.727 0 000-1.454zM15.819 3H4.182A2.182 2.182 0 002 5.182v11.636A2.182 2.182 0 004.182 19h11.636A2.182 2.182 0 0018 16.818V5.182A2.182 2.182 0 0015.818 3zm.728 13.818a.727.727 0 01-.728.727H4.182a.727.727 0 01-.727-.727v-6.545h13.09v6.545zm0-8H3.455V5.182a.727.727 0 01.727-.727h11.636a.727.727 0 01.728.727v3.636z" />
</svg>
